<?xml version="1.0" encoding="iso-8859-1"?>
<!-- Generator: Adobe Illustrator 16.0.0, SVG Export Plug-In . SVG Version: 6.00 Build 0)  -->
<!DOCTYPE svg PUBLIC "-//W3C//DTD SVG 1.1//EN" "http://www.w3.org/Graphics/SVG/1.1/DTD/svg11.dtd">
<svg version="1.1" id="Capa_1" xmlns="http://www.w3.org/2000/svg" xmlns:xlink="http://www.w3.org/1999/xlink" x="0px" y="0px"
	 width="20.878px" height="20.878px" viewBox="0 0 20.878 20.878" style="enable-background:new 0 0 20.878 20.878;"
	 xml:space="preserve">
<g>
	<path d="M14.515,14.314c0.023-0.472,0.373-1.01,0.565-1.468c0.524-1.248,1.864-2.068,1.966-3.413
		c0.148-1.962,0.353-3.779,2.747-4.738c-1.696-0.624-1.915-1.776-1.883-3.077c0.027-1.119-0.436-1.643-1.676-1.618
		C12.572,0.073,8.907,0.048,5.244,0.01C4.432,0.002,4.092,0.2,4.153,1.067c0.037,0.542,0.351,1.338-0.756,1.369
		c-0.45,0.012-0.341,0.519-0.345,0.845c-0.01,0.983,0.009,1.967-0.012,2.95C3.034,6.546,3.163,6.885,2.828,7.17
		c-1.846,1.56-2.138,2.311-1.287,4.396c0.536,1.313,0.721,2.876,1.797,3.854c0.873,0.795,1.664,1.647,2.503,2.461
		c0.948,0.918,1.374,2.928,3.437,2.055c0.09-0.038,0.319,0.062,0.376,0.161c0.544,0.93,1.491,0.682,2.294,0.771
		c1.187,0.132,3.524-0.989,3.593-1.906c0.104-1.383-0.892-2.261-2.064-2.882c-0.035-0.018-0.051-0.075-0.289-0.449
		C14.403,15.79,14.474,15.151,14.515,14.314z"/>
</g>
<g>
</g>
<g>
</g>
<g>
</g>
<g>
</g>
<g>
</g>
<g>
</g>
<g>
</g>
<g>
</g>
<g>
</g>
<g>
</g>
<g>
</g>
<g>
</g>
<g>
</g>
<g>
</g>
<g>
</g>
</svg>
